<svg width="94" height="91" viewBox="0 0 94 91" fill="none" xmlns="http://www.w3.org/2000/svg">
<path d="M0 0H94V91H0V0Z" fill="white"/>
<path d="M12.7172 63.7055L12.7157 63.7088C11.7923 65.8854 11.332 68.2082 11.332 70.6721C11.332 73.2604 11.791 75.6627 12.7147 77.8729L12.7147 77.8729L12.7172 77.8787C13.6703 80.0807 14.9868 82.0069 16.666 83.6531C18.3428 85.2971 20.2674 86.5801 22.4368 87.5004L22.4392 87.5014C24.6479 88.4245 27.0179 88.8841 29.544 88.8841C32.039 88.8841 34.3779 88.4242 36.5553 87.5004L36.5586 87.499C38.7577 86.5472 40.6973 85.249 42.3741 83.6051L42.3741 83.6051C44.0844 81.9277 45.4173 79.9859 46.3709 77.7827C47.3275 75.5726 47.804 73.2006 47.804 70.6721C47.804 68.2063 47.327 65.8819 46.3704 63.7044C45.4175 61.5032 44.0859 59.5629 42.3777 57.8866C40.7021 56.1791 38.7628 54.8479 36.5628 53.8951C34.3839 52.9053 32.0423 52.4121 29.544 52.4121C27.0138 52.4121 24.6404 52.9053 22.4295 53.895C20.2598 54.8485 18.3361 56.1805 16.6607 57.8883C14.9845 59.565 13.6695 61.5052 12.7172 63.7055ZM41.0337 65.7265L41.035 65.7297C41.68 67.2653 42.004 68.9111 42.004 70.6721C42.004 72.4657 41.6798 74.1269 41.0357 75.661C40.3866 77.175 39.5072 78.5164 38.3971 79.6882C37.2921 80.8546 35.9876 81.7764 34.4793 82.4542C32.9777 83.0971 31.3663 83.4201 29.64 83.4201C27.8805 83.4201 26.2533 83.0966 24.7528 82.4542C23.2432 81.7758 21.9208 80.8526 20.7823 79.6833C19.6417 78.5119 18.7482 77.1721 18.1003 75.6609C17.4558 74.1257 17.132 72.4804 17.132 70.7201C17.132 68.956 17.4413 67.3073 18.0563 65.7698L18.0575 65.7667C18.674 64.1946 19.5503 62.8276 20.6863 61.6609C21.8258 60.4906 23.1495 59.5668 24.6608 58.8882C26.1605 58.2149 27.7862 57.8761 29.544 57.8761C31.2685 57.8761 32.8784 58.2144 34.3792 58.8882L34.3792 58.8883L34.3871 58.8917C35.8949 59.5379 37.216 60.4444 38.3538 61.6129C39.4915 62.7814 40.385 64.1511 41.0337 65.7265ZM44.8045 39.9999C44.8045 40.276 45.0284 40.4999 45.3045 40.4999H49.8165C50.0927 40.4999 50.3165 40.276 50.3165 39.9999V19.7953L61.8903 35.9234C61.9842 36.0543 62.1354 36.1319 62.2965 36.1319H62.3925C62.5548 36.1319 62.707 36.0531 62.8008 35.9206L74.7085 19.084V39.9999C74.7085 40.276 74.9324 40.4999 75.2085 40.4999H79.8165C80.0927 40.4999 80.3165 40.276 80.3165 39.9999V4.19189C80.3165 3.91575 80.0927 3.69189 79.8165 3.69189H79.7205C79.5589 3.69189 79.4073 3.77 79.3135 3.90157L62.433 27.5699L45.7613 3.90394C45.6676 3.77099 45.5152 3.69189 45.3525 3.69189H45.3045C45.0284 3.69189 44.8045 3.91575 44.8045 4.19189V39.9999ZM13.992 4.7959C13.7159 4.7959 13.492 5.01976 13.492 5.2959V39.9999C13.492 40.276 13.7159 40.4999 13.992 40.4999H37.224C37.5002 40.4999 37.724 40.276 37.724 39.9999V35.5359C37.724 35.2598 37.5002 35.0359 37.224 35.0359H19.148V25.2839H34.632C34.9082 25.2839 35.132 25.06 35.132 24.7839V20.3199C35.132 20.0438 34.9082 19.8199 34.632 19.8199H19.148V10.2599H36.552C36.8282 10.2599 37.052 10.036 37.052 9.7599V5.2959C37.052 5.01976 36.8282 4.7959 36.552 4.7959H13.992Z" fill="#080E22" stroke="#080E22" stroke-linejoin="round"/>
</svg>
